#!OML:ASF F:\VICON\USERDATA\INSTALL\Justin_Nancy\Justin_Nancy.ASF
:FULLY-SPECIFIED
:DEGREES
95
root 0.294514 17.2772 -28.7986 4.15533 -2.56355 -2.92049
lowerback 6.89507 2.47136 2.25077
upperback 1.18157 3.52165 2.40902
thorax -2.65768 1.74032 0.903249
lowerneck -10.7202 -4.13179 -9.08882
upperneck 18.3794 -5.20083 6.18969
head 7.83658 -2.53692 3.03032
rclavicle 2.66371e-014 5.56597e-015
rhumerus -31.2901 -8.97869 -81.1509
rradius 29.2544
rwrist 7.81599
rhand -14.226 9.43461
rfingers 7.12502
rthumb 11.9112 -20.2066
lclavicle 2.66371e-014 5.56597e-015
lhumerus -35.0365 18.6501 78.0604
lradius 24.3337
lwrist -12.4962
lhand -14.0609 14.464
lfingers 7.12502
lthumb 12.0703 44.0958
rfemur 6.02514 5.45708 30.6211
rtibia 13.846
rfoot -17.3625 -9.96732
rtoes 9.6105
lfemur -38.2453 -3.18285 -14.409
ltibia 26.1774
lfoot -10.8091 5.56395
ltoes -3.06149
96
root 0.304186 17.2696 -28.7096 4.21723 -2.89814 -3.01092
lowerback 6.92916 2.51948 2.43351
upperback 1.27027 3.59574 2.38392
thorax -2.57224 1.77632 0.770057
lowerneck -11.1382 -4.20129 -9.08674
upperneck 18.4798 -5.25501 6.14254
head 7.94871 -2.55998 3.00276
rclavicle 4.12478e-014 5.56597e-015
rhumerus -31.0165 -8.73749 -81.328
rradius 29.3976
rwrist 7.92583
rhand -14.096 9.67604
rfingers 7.12502
rthumb 12.0366 -19.9578
lclavicle 4.12478e-014 5.56597e-015
lhumerus -35.1516 19.0143 77.7982
lradius 24.267
lwrist -12.6546
lhand -16.132 7.83624
lfingers 7.12502
lthumb 10.0728 37.5752
rfemur 6.64052 5.4768 30.6166
rtibia 13.1412
rfoot -17.168 -9.68778
rtoes 9.03395
lfemur -38.2354 -3.19266 -14.1698
ltibia 25.5091
lfoot -10.5266 6.04655
ltoes -2.65153
97
root 0.310802 17.26 -28.6224 4.27959 -3.19417 -3.04823
lowerback 6.89841 2.59233 2.52175
upperback 1.36228 3.69286 2.3483
thorax -2.45187 1.82526 0.680024
lowerneck -11.5003 -4.12218 -9.02977
upperneck 18.6346 -5.12636 6.12146
head 8.05249 -2.49133 2.99665
rclavicle 5.06901e-015 -2.62396e-014
rhumerus -30.7221 -8.7095 -81.4388
rradius 29.5403
rwrist 8.39823
rhand -13.6166 9.16185
rfingers 7.12502
rthumb 12.4988 -20.4444
lclavicle 5.06901e-015 -2.62396e-014
lhumerus -35.2721 19.0888 77.7006
lradius 24.4265
lwrist -12.469
lhand -5.52262 34.5496
lfingers 7.12502
lthumb 20.2912 63.5097
rfemur 7.26313 5.51581 30.5859
rtibia 12.4788
rfoot -16.9302 -9.48777
rtoes 7.96941
lfemur -38.2275 -3.25832 -13.9411
ltibia 24.9018
lfoot -10.7938 6.39116
ltoes -2.23528
98
root 0.318346 17.249 -28.5326 4.4022 -3.55672 -3.11517
lowerback 6.82505 2.69183 2.62275
upperback 1.43774 3.82562 2.33378
thorax -2.32485 1.89214 0.603647
lowerneck -11.9667 -4.03623 -9.05709
upperneck 18.8564 -4.96873 6.12039
head 8.19847 -2.41171 3.01427
rclavicle 4.08502e-014 1.27222e-014
rhumerus -30.4057 -8.56486 -81.6098
rradius 29.5708
rwrist 8.11628
rhand -13.3581 8.39624
rfingers 7.12502
rthumb 12.748 -21.1946
lclavicle 4.08502e-014 1.27222e-014
lhumerus -35.314 19.2238 77.6888
lradius 24.4813
lwrist -12.2274
lhand 8.03648 55.6841
lfingers 7.12502
lthumb 33.2617 82.6287
rfemur 7.75875 5.52598 30.5472
rtibia 11.9901
rfoot -16.7467 -9.24537
rtoes 6.75782
lfemur -38.2068 -3.32593 -13.6425
ltibia 24.3175
lfoot -10.6779 6.74819
ltoes -2.74962
99
root 0.325601 17.238 -28.4465 4.63319 -3.87503 -3.19345
lowerback 6.64092 2.77313 2.71721
upperback 1.48018 3.93025 2.32582
thorax -2.17088 1.94556 0.545441
lowerneck -12.2697 -3.93573 -9.19098
upperneck 18.9951 -4.81382 6.28236
head 8.29412 -2.32804 3.10687
rclavicle -1.07344e-014 2.14687e-014
rhumerus -30.056 -8.27944 -81.8564
rradius 29.4895
rwrist 7.15145
rhand -13.4968 8.37606
rfingers 7.12502
rthumb 12.6143 -21.2231
lclavicle -1.07344e-014 2.14687e-014
lhumerus -35.2866 19.7095 77.5146
lradius 24.3286
lwrist -12.3517
lhand -11.2333 26.7865
lfingers 7.12502
lthumb 14.7958 56.2383
rfemur 8.01124 5.70956 30.5528
rtibia 11.7028
rfoot -16.6475 -9.12677
rtoes 6.43481
lfemur -38.3192 -3.46563 -13.3194
ltibia 23.7772
lfoot -10.2942 7.20445
ltoes -2.54485
